<svg width="531" height="500" viewBox="0 0 531 500" fill="none" xmlns="http://www.w3.org/2000/svg">
<path d="M133.865 399.25C133.865 399.25 181.124 425.89 238.472 403.87C295.82 381.85 317.06 334.09 348.304 299.08C364.67 280.74 390.147 271.45 410.091 256.38C473.811 208.2 457.531 120.7 403.719 93.9C357.129 70.7 301.332 74.9 230.613 105.73C159.895 136.56 108.982 156.15 68.584 223.25C28.1855 290.35 75.4021 362.37 133.865 399.25Z" fill="#1D1C62"/>
<path opacity="0.7" d="M133.865 399.25C133.865 399.25 181.124 425.89 238.472 403.87C295.82 381.85 317.06 334.09 348.304 299.08C364.67 280.74 390.147 271.45 410.091 256.38C473.811 208.2 457.531 120.7 403.719 93.9C357.129 70.7 301.332 74.9 230.613 105.73C159.895 136.56 108.982 156.15 68.584 223.25C28.1855 290.35 75.4021 362.37 133.865 399.25Z" fill="white"/>
<path d="M453.559 325.55C450.15 324.96 445.711 329.13 444.256 331.7C444.15 331.88 443.119 334.33 442.758 335.26C442.758 335.26 442.758 335.2 442.758 335.17C442.863 332.161 442.685 329.149 442.227 326.17C441.829 323.525 441.269 320.904 440.549 318.32C439.912 315.91 439.169 313.75 438.489 311.84C438.117 310.84 437.756 309.84 437.427 309H437.491C437.555 309 437.799 305.06 437.778 304.81C437.608 301.9 435.452 296.37 432.096 295.54C431.534 295.418 430.951 295.409 430.385 295.514C429.819 295.618 429.283 295.833 428.811 296.145C428.34 296.457 427.943 296.86 427.647 297.326C427.351 297.792 427.163 298.311 427.094 298.85C426.712 301.13 428.305 303.54 429.908 305.11C431.512 306.68 436.11 308.48 437.236 308.91C437.576 309.81 437.937 310.8 438.298 311.91C438.925 313.83 439.615 316 440.199 318.41C440.369 319.09 440.528 319.79 440.687 320.51C440.188 319.42 439.434 317.87 439.349 317.73C437.767 315.22 433.147 311.24 429.791 311.97C429.234 312.105 428.712 312.349 428.262 312.687C427.811 313.024 427.441 313.447 427.175 313.929C426.91 314.41 426.755 314.938 426.721 315.479C426.687 316.021 426.774 316.563 426.977 317.07C427.752 319.26 430.344 320.71 432.542 321.4C434.74 322.09 439.838 321.7 440.953 321.59C441.25 323.08 441.526 324.59 441.718 326.25C442.099 329.186 442.206 332.147 442.036 335.1C442.036 335.28 442.036 335.46 442.036 335.64C441.888 335.08 440.815 331.94 440.709 331.73C439.434 329.07 435.303 324.64 431.852 325.01C431.28 325.087 430.733 325.277 430.244 325.566C429.756 325.856 429.338 326.239 429.017 326.691C428.697 327.143 428.481 327.653 428.384 328.189C428.287 328.725 428.31 329.274 428.453 329.8C428.974 332.05 431.384 333.8 433.487 334.67C435.898 335.72 441.749 335.73 441.983 335.73C441.717 338.668 441.252 341.587 440.592 344.47C440.114 346.61 439.53 348.76 438.946 350.91C438.733 350.18 437.735 347.27 437.64 347.07C436.365 344.41 432.234 339.98 428.782 340.35C428.211 340.427 427.664 340.617 427.175 340.906C426.687 341.196 426.269 341.579 425.948 342.031C425.628 342.483 425.412 342.993 425.315 343.529C425.217 344.065 425.241 344.614 425.384 345.14C425.904 347.39 428.315 349.14 430.418 350.02C432.722 351.02 438.181 351.07 438.914 351.08C438.648 352.08 438.372 353.02 438.086 354C437.172 357.18 436.238 360.37 435.42 363.54C435.133 364.63 434.878 365.71 434.645 366.79C434.284 365.67 433.583 363.71 433.583 363.55C432.298 360.89 428.167 356.46 424.715 356.84C424.165 356.914 423.636 357.093 423.162 357.367C422.687 357.64 422.278 358.002 421.957 358.43C421.637 358.858 421.413 359.343 421.299 359.855C421.185 360.368 421.184 360.897 421.295 361.41C418.385 362.28 416.251 366.87 415.922 369.41C415.922 369.5 415.922 370.11 415.922 370.81C415.709 369.81 415.518 368.75 415.348 367.7C414.881 364.79 414.499 361.82 414.106 358.85L413.851 356.98C414.976 356.64 419.108 355.31 420.679 353.98C422.251 352.65 423.865 350.56 423.642 348.47C423.613 347.978 423.475 347.497 423.236 347.059C422.997 346.621 422.663 346.234 422.256 345.925C421.848 345.616 421.376 345.391 420.871 345.264C420.365 345.138 419.837 345.112 419.32 345.19C416.219 345.75 413.914 350.64 413.564 353.27C413.564 353.36 413.564 354.02 413.564 354.77C413.33 353.16 413.065 351.56 412.757 349.98C412.241 347.252 411.531 344.559 410.633 341.92C411.291 341.73 415.943 340.3 417.674 338.85C419.405 337.4 420.86 335.42 420.637 333.33C420.61 332.838 420.472 332.357 420.234 331.918C419.995 331.479 419.661 331.093 419.253 330.784C418.845 330.475 418.372 330.251 417.866 330.127C417.36 330.002 416.831 329.979 416.315 330.06C413.214 330.61 410.909 335.5 410.559 338.13C410.559 338.32 410.505 340.71 410.559 341.61C410.559 341.61 410.559 341.55 410.559 341.53C409.52 338.953 408.245 336.467 406.746 334.1C405.489 331.979 404.103 329.929 402.594 327.96C401.213 326.12 399.832 324.51 398.6 323.1C397.931 322.35 397.294 321.66 396.699 321.03H396.763C396.816 321.03 395.648 317.6 395.552 317.39C394.395 314.97 390.646 310.95 387.513 311.28C386.995 311.349 386.498 311.52 386.054 311.782C385.611 312.044 385.231 312.391 384.939 312.801C384.648 313.21 384.451 313.673 384.362 314.159C384.273 314.644 384.294 315.142 384.423 315.62C384.89 317.67 387.078 319.23 388.989 320.06C390.901 320.89 395.361 321.01 396.508 321.06C397.114 321.72 397.761 322.45 398.441 323.25C399.641 324.69 400.979 326.31 402.307 328.18C402.689 328.7 403.071 329.25 403.454 329.8C402.647 329.03 401.478 327.95 401.33 327.86C399.121 326.22 393.821 324.27 391.209 325.93C390.781 326.215 390.422 326.581 390.155 327.006C389.889 327.43 389.72 327.903 389.661 328.393C389.602 328.883 389.653 329.379 389.812 329.849C389.971 330.319 390.233 330.752 390.582 331.12C392.005 332.73 394.714 333.17 396.806 333.12C398.898 333.07 403.093 331.12 403.995 330.69C404.781 331.86 405.546 333.09 406.268 334.4C407.613 336.769 408.733 339.245 409.613 341.8C409.666 341.96 409.709 342.12 409.762 342.28C409.443 341.85 407.436 339.51 407.277 339.37C405.27 337.51 400.236 335.03 397.443 336.37C396.987 336.611 396.589 336.94 396.277 337.336C395.964 337.731 395.743 338.184 395.628 338.664C395.513 339.145 395.506 339.643 395.608 340.127C395.711 340.61 395.919 341.068 396.222 341.47C397.443 343.22 400.077 343.93 402.179 344.06C404.59 344.21 409.55 342.41 409.783 342.33C410.583 344.899 411.2 347.514 411.631 350.16C411.971 352.16 412.237 354.16 412.47 356.16C412.045 355.6 410.187 353.44 410.038 353.3C408.031 351.44 402.997 348.96 400.204 350.3C399.747 350.54 399.348 350.869 399.034 351.264C398.721 351.659 398.499 352.112 398.384 352.593C398.269 353.074 398.262 353.573 398.366 354.057C398.469 354.54 398.679 354.998 398.983 355.4C400.204 357.14 402.838 357.86 404.941 357.98C407.234 358.12 411.886 356.49 412.491 356.27C412.598 357.18 412.704 358.09 412.799 359C413.129 362 413.447 365 413.861 367.91C413.999 368.91 414.159 369.91 414.329 370.91C413.638 370.08 412.385 368.63 412.258 368.51C410.251 366.65 405.217 364.17 402.424 365.51C401.967 365.752 401.57 366.08 401.257 366.476C400.945 366.871 400.724 367.324 400.609 367.804C400.493 368.285 400.487 368.783 400.589 369.267C400.691 369.75 400.9 370.208 401.202 370.61C402.424 372.36 405.057 373.07 407.16 373.19C409.263 373.31 413.288 371.98 414.456 371.57C414.753 373.24 415.104 374.88 415.518 376.48C415.72 377.17 415.869 377.89 416.092 378.54L416.729 380.54C417.217 381.86 417.663 383.09 418.141 384.32C418.375 384.9 418.598 385.48 418.832 386.05C418.258 385.11 417.387 383.7 417.292 383.58C415.603 381.45 411.026 378.28 408.042 379.24C407.551 379.413 407.105 379.682 406.732 380.028C406.359 380.375 406.067 380.791 405.876 381.25C405.685 381.709 405.598 382.201 405.622 382.694C405.646 383.186 405.779 383.669 406.013 384.11C406.948 386.01 409.433 387.11 411.482 387.52C413.532 387.93 418.407 387.07 419.182 386.91C419.787 388.38 420.382 389.79 420.966 391.11C421.55 392.43 422.23 393.91 422.825 395.16H417.706V398.33H418.927L420.924 420.56H436.854L438.84 398.33H439.764V395.16H435.239C435.112 393.57 434.995 391.85 434.9 390.01C434.825 388.58 434.772 387.08 434.73 385.53C435.579 385.46 440.868 384.96 443.035 383.79C445.042 382.71 447.282 380.79 447.601 378.52C447.694 377.984 447.667 377.436 447.521 376.911C447.374 376.387 447.112 375.896 446.752 375.473C446.391 375.05 445.94 374.702 445.428 374.454C444.916 374.205 444.353 374.061 443.778 374.03C440.305 373.94 436.599 378.69 435.569 381.44C435.494 381.62 434.953 383.83 434.719 384.93C434.719 383.99 434.719 383.03 434.719 382.06C434.719 380.65 434.719 379.17 434.719 377.74C434.719 376.99 434.793 376.24 434.836 375.48C434.878 374.72 434.985 373.99 435.048 373.23C435.176 372.12 435.346 370.98 435.537 369.84C437.077 369.91 441.537 370.04 443.619 369.29C445.7 368.54 448.302 366.94 448.929 364.73C449.112 364.213 449.176 363.665 449.118 363.123C449.06 362.58 448.881 362.056 448.592 361.583C448.303 361.111 447.911 360.702 447.442 360.382C446.973 360.063 446.437 359.84 445.87 359.73C442.461 359.14 438.032 363.3 436.567 365.88C436.514 365.96 436.248 366.58 435.951 367.3C436.174 366.17 436.408 365.03 436.673 363.9C437.417 360.74 438.277 357.54 439.116 354.34C439.296 353.67 439.466 353 439.647 352.34C440.942 352.41 445.743 352.58 447.92 351.79C450.097 351 452.603 349.45 453.23 347.23C453.411 346.713 453.474 346.165 453.415 345.624C453.356 345.082 453.177 344.558 452.888 344.086C452.599 343.614 452.208 343.205 451.74 342.885C451.272 342.565 450.737 342.342 450.171 342.23C446.752 341.65 442.323 345.81 440.868 348.39C440.815 348.48 440.518 349.15 440.199 349.92C440.634 348.18 441.038 346.43 441.378 344.69C441.999 341.699 442.407 338.672 442.599 335.63C443.353 335.68 448.759 335.95 451.095 335.1C453.219 334.32 455.768 332.76 456.405 330.54C456.589 330.037 456.66 329.504 456.614 328.974C456.568 328.444 456.407 327.928 456.14 327.46C455.872 326.991 455.505 326.58 455.061 326.251C454.617 325.922 454.106 325.684 453.559 325.55ZM425.044 395.12C424.336 393.68 423.564 392.1 422.729 390.38C422.166 389.19 421.603 387.94 421.03 386.64C422.894 385.772 424.671 384.748 426.34 383.58C428.44 384.246 430.597 384.741 432.786 385.06C432.786 386.79 432.786 388.46 432.861 390.06C432.914 391.88 432.988 393.57 433.073 395.14L425.044 395.12ZM433.434 373.02C433.349 373.8 433.2 374.59 433.169 375.35C433.137 376.11 433.052 376.85 432.988 377.6C432.988 379.14 432.871 380.6 432.861 382.01C432.861 382.69 432.861 383.37 432.861 384.01C432.68 382.83 432.372 381.01 432.319 380.9C431.48 378.09 428.071 373.12 424.641 373C424.064 372.995 423.493 373.104 422.965 373.32C422.436 373.536 421.962 373.854 421.572 374.254C421.183 374.653 420.887 375.126 420.704 375.64C420.52 376.155 420.454 376.7 420.509 377.24C420.56 377.84 420.726 378.426 420.998 378.97C420.573 380.235 420.355 381.553 420.35 382.88C420.35 383.06 420.658 385.09 420.839 386.1C420.499 385.31 420.148 384.51 419.777 383.68C419.278 382.5 418.789 381.23 418.301 380.01C418.077 379.37 417.854 378.72 417.621 378.01C417.387 377.3 417.228 376.7 417.026 376.01C416.75 375.01 416.495 374.01 416.261 373.01C417.589 372.59 421.412 371.33 422.91 370.01C424.183 368.971 425.139 367.632 425.681 366.13L426.234 366.4C428.358 367.31 433.041 367.4 434.411 367.45C434.022 369.37 433.696 371.22 433.434 373V373.02Z" fill="#263238"/>
<path d="M449.428 318.45C451.286 317.16 453.283 315.02 453.315 312.72C453.342 312.178 453.249 311.636 453.04 311.13C452.831 310.624 452.511 310.166 452.101 309.784C451.692 309.402 451.201 309.105 450.662 308.913C450.123 308.721 449.547 308.639 448.971 308.67C445.509 308.96 442.408 314.08 441.718 316.92C441.654 317.17 441.197 321.11 441.261 321.1C441.325 321.09 447.24 320 449.428 318.45Z" fill="#263238"/>
<path d="M404.176 330.07C404.176 330.07 408.838 327.27 410.176 325.31C411.302 323.64 412.3 321.22 411.482 319.26C411.318 318.792 411.051 318.362 410.698 317.998C410.345 317.633 409.914 317.343 409.434 317.146C408.954 316.949 408.436 316.849 407.912 316.853C407.389 316.857 406.872 316.965 406.396 317.17C403.56 318.47 402.71 323.77 403.114 326.39C403.146 326.61 404.123 330.1 404.176 330.07Z" fill="#263238"/>
<path d="M452.348 139.76H230.762V265.53H452.348V139.76Z" fill="white" stroke="#263238" stroke-linecap="round" stroke-linejoin="round"/>
<path d="M452.348 261.67H230.762V265.53H452.348V261.67Z" fill="white" stroke="#263238" stroke-linecap="round" stroke-linejoin="round"/>
<path d="M416.612 225C416.686 225.12 418.332 223.9 418.417 224C418.587 224.28 411.589 229.76 411.759 230C412.13 230.62 425.395 221.81 425.756 222.39C426.117 222.97 409.741 232.54 410.166 233.24C410.718 234.13 429.112 221.99 429.558 222.7C430.004 223.41 409.114 234.3 409.592 235.08C410.07 235.86 431.023 222.32 431.544 223.15C432.064 223.98 408.721 235.58 409.242 236.5C409.762 237.42 432.404 222.75 432.935 223.62C433.466 224.49 408.573 238.81 409.093 239.62C409.794 240.77 435.324 224.01 435.94 225.02C436.556 226.03 408.562 239.37 409.146 240.33C409.73 241.29 435.898 224.33 436.578 225.42C437.162 226.36 408.562 240.34 409.252 241.47C409.943 242.6 436.864 224.93 437.576 226.07C438.287 227.21 409.263 243.13 409.868 244.07C410.59 245.24 438.967 226.73 439.668 227.87C440.369 229.01 409.751 244.47 410.527 245.73C411.302 246.99 440.082 227.9 440.9 229.22C441.569 230.32 410.102 245.12 410.707 246.14C411.451 247.35 440.443 228.37 441.197 229.57C441.951 230.77 410.251 245.57 410.952 246.7C411.769 248.02 440.804 228.9 441.526 230.08C442.153 231.08 410.569 246.16 411.249 247.26C411.929 248.36 441.187 229.47 441.888 230.61C442.588 231.75 411.939 248.18 412.714 249.45C413.383 250.54 442.387 231.65 443.162 232.9C443.937 234.15 412.948 249.34 413.638 250.46C414.329 251.58 443.035 233.03 443.704 234.12C444.373 235.21 413.681 250.18 414.307 251.2C415.083 252.46 443.332 233.98 443.99 235.06C444.649 236.14 415.688 251.83 416.378 252.95C417.069 254.07 443.799 236.37 444.564 237.63C445.18 238.63 415.837 251.91 416.548 253.06C417.26 254.21 443.916 236.84 444.617 238C445.318 239.16 416.038 252.28 416.665 253.3C417.292 254.32 443.916 236.95 444.628 238.11C445.233 239.11 418.863 253.9 419.479 254.91C420.095 255.92 444.043 240.1 444.712 241.19C445.212 242.01 421.264 254.91 421.826 255.82C422.389 256.73 443.884 242.73 444.383 243.55C444.882 244.37 421.699 255.1 422.219 255.95C422.74 256.8 443.693 242.95 444.298 243.95C444.808 244.77 426.096 256.02 426.51 256.69C426.924 257.36 442.44 247.06 442.865 247.8C443.183 248.32 430.662 256.01 430.96 256.5C431.257 256.99 440.114 250.93 440.39 251.38C440.518 251.58 434.645 255.2 434.793 255.38C434.942 255.56 437.523 253.67 437.629 253.84C437.735 254.01 435.42 255.04 435.505 255.11C435.59 255.18 437.215 254 437.3 254.11" stroke="#263238" stroke-width="0.72" stroke-linecap="round" stroke-linejoin="round"/>
<path d="M424.142 246.29C424.68 246.191 425.189 245.98 425.628 245.67C426.001 245.395 426.314 245.055 426.552 244.67C426.952 244.072 427.155 243.376 427.136 242.67C427.157 242.033 426.98 241.404 426.627 240.86C426.264 240.347 425.73 239.963 425.108 239.77C425.49 239.606 425.83 239.367 426.106 239.07C426.54 238.554 426.759 237.907 426.722 237.25C426.741 236.578 426.529 235.919 426.117 235.37C425.701 234.913 425.176 234.557 424.586 234.329C423.995 234.101 423.355 234.009 422.718 234.06H416.346V246.39H422.251C422.883 246.418 423.517 246.385 424.142 246.29ZM419.001 236.29H421.848C422.372 236.274 422.896 236.338 423.398 236.48C423.63 236.574 423.824 236.736 423.952 236.941C424.08 237.146 424.135 237.383 424.11 237.62C424.133 237.829 424.095 238.041 423.999 238.231C423.904 238.422 423.755 238.584 423.568 238.7C423.148 238.924 422.669 239.031 422.187 239.01H419.001V236.29ZM419.001 244.34V241H422.187C422.633 240.99 423.077 241.061 423.494 241.21C423.762 241.321 423.986 241.508 424.136 241.744C424.287 241.981 424.355 242.255 424.333 242.53C424.37 242.839 424.307 243.152 424.151 243.427C423.996 243.702 423.755 243.926 423.462 244.07C423.047 244.237 422.596 244.312 422.145 244.29L419.001 244.34Z" fill="white"/>
<path d="M429.356 245.64C430.318 246.377 431.525 246.773 432.765 246.76C433.438 246.798 434.112 246.699 434.741 246.47C435.369 246.24 435.938 245.886 436.408 245.43C436.902 244.989 437.233 244.411 437.353 243.78H434.762C434.638 244.023 434.46 244.237 434.241 244.41C433.842 244.703 433.345 244.852 432.839 244.83C432.347 244.844 431.861 244.726 431.437 244.49C431.108 244.277 430.842 243.987 430.665 243.649C430.489 243.311 430.407 242.936 430.429 242.56H437.48C437.507 241.956 437.482 241.351 437.406 240.75C437.295 240.075 437.03 239.43 436.631 238.86C436.218 238.272 435.636 237.807 434.953 237.52C434.237 237.223 433.462 237.077 432.68 237.09C432.041 237.066 431.403 237.165 430.805 237.382C430.208 237.599 429.664 237.928 429.207 238.35C428.74 238.845 428.382 239.423 428.155 240.05C427.927 240.676 427.833 241.339 427.88 242C427.813 242.673 427.912 243.351 428.168 243.982C428.424 244.613 428.83 245.18 429.356 245.64ZM431.161 239.58C431.362 239.399 431.601 239.259 431.863 239.17C432.124 239.08 432.402 239.043 432.68 239.06C433.227 239.042 433.76 239.217 434.177 239.55C434.388 239.734 434.557 239.957 434.674 240.204C434.791 240.452 434.853 240.719 434.857 240.99H430.492C430.549 240.463 430.788 239.968 431.172 239.58H431.161Z" fill="white"/>
<path d="M435.356 234.83H429.664V236.08H435.356V234.83Z" fill="white"/>
<path d="M412.428 149C412.502 149.13 414.148 147.9 414.222 148C414.392 148.29 407.075 154.2 407.277 154.52C407.617 155.07 421.805 145.8 422.145 146.41C422.485 147.02 406.523 154.62 406.873 155.2C407.224 155.78 422.549 145.82 422.941 146.46C423.334 147.1 405.726 156.22 406.098 156.83C406.608 157.66 424.418 145.94 424.842 146.64C425.267 147.34 404.569 159.64 405.068 160.45C405.567 161.26 428.039 146.59 428.666 147.62C429.165 148.42 404.378 160.62 404.962 161.55C405.546 162.48 429.122 147.03 429.76 148.07C430.301 148.95 404.378 162.88 404.898 163.73C405.418 164.58 431.183 148.1 431.799 149.11C432.415 150.12 404.346 163.45 404.962 164.46C405.578 165.47 431.714 148.33 432.436 149.52C433.158 150.71 404.463 164.33 405.036 165.27C405.716 166.38 432.531 148.94 433.158 149.98C433.784 151.02 404.399 164.62 405.068 165.72C405.737 166.82 432.85 149.16 433.53 150.25C434.209 151.34 404.399 164.8 405.132 166C405.865 167.2 433.084 149.4 433.731 150.45C434.379 151.5 404.739 165.98 405.418 167.08C406.098 168.18 433.976 150.08 434.634 151.19C435.388 152.42 404.824 166.24 405.472 167.31C406.279 168.62 434.146 150.31 434.825 151.36C435.505 152.41 405.238 167.74 405.886 168.8C406.64 170.04 435.154 151.23 435.919 152.47C436.578 153.54 406.13 169.79 406.863 170.98C407.596 172.17 436.726 153.16 437.448 154.35C438.171 155.54 407.532 172.01 408.169 173.05C408.806 174.09 437.969 155.2 438.733 156.44C439.498 157.68 407.542 172 408.296 173.23C409.051 174.46 438.139 155.53 438.818 156.64C439.498 157.75 408.477 173.19 409.082 174.2C409.805 175.38 438.617 156.64 439.307 157.77C439.997 158.9 409.348 174.12 410.07 175.29C410.792 176.46 439.105 158.01 439.806 159.13C440.507 160.25 410.07 174.75 410.782 175.94C411.493 177.13 439.275 158.79 440.04 160.03C440.804 161.27 412.321 176.48 413.033 177.64C413.745 178.8 439.88 161.74 440.475 162.72C441.07 163.7 414.562 177.85 415.168 178.83C415.773 179.81 439.902 164 440.528 165C441.155 166 415.178 178.15 415.73 179.05C416.283 179.95 439.902 164.62 440.486 165.59C441.07 166.56 417.122 178.91 417.642 179.76C418.269 180.76 439.583 166.5 440.199 167.5C440.709 168.33 419.947 179.7 420.393 180.42C420.839 181.14 438.914 169.23 439.424 170.07C439.806 170.68 421.274 179.84 421.741 180.59C422.209 181.34 438.479 170.5 438.935 171.24C439.264 171.78 425.586 179.95 425.936 180.53C426.287 181.11 436.556 174.16 436.822 174.61C436.96 174.83 431.045 178.92 431.172 179.14C431.299 179.36 433.052 177.96 433.126 178.08C433.2 178.2 431.236 179.03 431.278 179.08C431.321 179.13 432.977 177.96 433.073 178.08" stroke="#263238" stroke-width="0.72" stroke-linecap="round" stroke-linejoin="round"/>
<path d="M419.777 174.25H424.333V163.51H427.519L427.859 159.91H424.333V157.91C424.333 157.07 424.513 156.73 425.395 156.73H427.869V153H424.683C421.285 153 419.755 154.4 419.755 157.1V159.96H417.366V163.6H419.734L419.777 174.25Z" fill="white"/>
<path d="M360.368 178.49C360.443 178.61 362.089 177.38 362.174 177.49C362.259 177.6 356.407 181.86 356.545 182.08C356.853 182.58 367.346 175.57 367.643 176.08C367.941 176.59 354.389 184.48 354.708 185C355.027 185.52 370.808 175.25 371.265 176C371.721 176.75 352.881 187.7 353.381 188.51C353.88 189.32 374.621 175.79 375.183 176.66C375.746 177.53 352.34 190.79 352.881 191.66C353.423 192.53 377.753 176.89 378.369 177.83C378.985 178.77 352.361 191.12 352.881 191.98C353.572 193.1 377.955 176.83 378.656 177.98C379.198 178.87 352.255 191.72 352.85 192.7C353.54 193.83 378.614 177.13 379.336 178.31C379.941 179.31 352.488 194.23 353.062 195.15C353.731 196.25 380.865 178.71 381.47 179.71C382.076 180.71 353.094 196.91 353.742 198C354.389 199.09 382.915 180.53 383.658 181.74C384.274 182.74 353.466 197.9 354.188 199.09C355.016 200.44 383.796 181.53 384.465 182.63C385.134 183.73 353.667 198.34 354.421 199.63C355.175 200.92 384.072 181.8 384.848 183.08C385.485 184.08 353.901 198.92 354.644 200.08C355.388 201.24 384.487 182.37 385.166 183.49C385.846 184.61 354.421 199.87 355.101 200.99C355.897 202.28 385.028 183.19 385.729 184.34C386.43 185.49 354.549 200 355.271 201.22C355.993 202.44 385.156 183.35 385.91 184.57C386.664 185.79 356.174 202.38 356.864 203.45C357.554 204.52 386.494 185.88 387.163 186.98C387.938 188.24 356.758 202.98 357.512 204.16C358.266 205.34 386.802 186.61 387.545 187.83C388.182 188.83 358.117 204.28 358.871 205.51C359.625 206.74 387.258 188.36 388.044 189.64C388.724 190.75 358.871 204.96 359.551 206.07C360.23 207.18 387.545 189.3 388.225 190.46C388.904 191.62 359.901 205.76 360.613 206.85C361.324 207.94 387.726 190.61 388.416 191.73C388.947 192.61 362.684 207.42 363.247 208.34C363.809 209.26 387.789 193.47 388.48 194.61C389.17 195.75 363.406 207.72 364.054 208.7C364.701 209.68 387.906 194.51 388.48 195.43C389.053 196.35 365.795 208.61 366.39 209.5C366.985 210.39 387.45 196.78 388.034 197.74C388.522 198.52 366.188 208.74 366.709 209.59C367.229 210.44 387.503 197.27 387.949 198.03C388.395 198.79 366.974 209 367.452 209.75C367.93 210.5 387.152 197.93 387.63 198.75C388.034 199.4 368.153 209.2 368.62 209.97C369.088 210.74 386.674 198.97 387.226 199.86C387.619 200.5 372.794 209.46 373.166 210.07C373.537 210.68 384.795 203.07 385.102 203.58C385.272 203.86 378.115 208.68 378.284 208.94C378.454 209.2 381.354 207.02 381.47 207.21C381.587 207.4 378.412 208.74 378.486 208.86C378.561 208.98 381.247 207.12 381.364 207.3C381.481 207.48 379.134 208.51 379.177 208.59C379.219 208.67 380.897 207.48 380.971 207.59" stroke="#263238" stroke-width="0.72" stroke-linecap="round" stroke-linejoin="round"/>
<path d="M360.729 199C362.524 200.088 364.602 200.689 366.736 200.738C368.869 200.788 370.976 200.282 372.825 199.278C374.673 198.274 376.192 196.81 377.216 195.046C378.239 193.282 378.726 191.287 378.624 189.28C379.426 188.734 380.116 188.056 380.663 187.28C379.919 187.596 379.127 187.802 378.316 187.89C379.172 187.412 379.811 186.654 380.111 185.76C379.31 186.207 378.434 186.522 377.52 186.69C376.902 186.072 376.085 185.663 375.196 185.527C374.306 185.39 373.394 185.533 372.599 185.934C371.805 186.335 371.173 186.971 370.801 187.744C370.429 188.517 370.338 189.383 370.542 190.21C368.918 190.136 367.328 189.742 365.875 189.053C364.423 188.364 363.14 187.395 362.11 186.21C361.587 187.058 361.428 188.063 361.665 189.018C361.901 189.973 362.517 190.807 363.384 191.35C362.733 191.333 362.095 191.169 361.526 190.87C361.514 191.768 361.836 192.642 362.435 193.341C363.034 194.04 363.873 194.521 364.808 194.7C364.205 194.855 363.572 194.876 362.96 194.76C363.218 195.528 363.726 196.2 364.412 196.681C365.098 197.162 365.928 197.427 366.783 197.44C365.933 198.063 364.96 198.521 363.921 198.789C362.883 199.056 361.798 199.128 360.729 199Z" fill="white"/>
<path d="M310.369 148.78C310.444 148.9 312.079 147.66 312.164 147.78C312.366 148.11 304.974 154.06 305.176 154.39C305.537 154.99 319.832 145.54 320.235 146.2C320.639 146.86 304.305 154.95 304.592 155.49C304.879 156.03 321.043 145.49 321.52 146.28C321.998 147.07 303.859 155.53 304.252 156.17C304.645 156.81 321.839 145.51 322.306 146.33C322.774 147.15 302.681 159.03 303.127 159.77C303.573 160.51 325.588 146.31 326.161 147.25C326.735 148.19 302.203 161.75 302.797 162.75C303.392 163.75 328.37 147.4 329.039 148.48C329.708 149.56 302.373 164.57 303.02 165.63C303.774 166.87 330.813 148.91 331.556 150.12C332.3 151.33 302.426 164.79 303.137 166C303.849 167.21 331.195 149.32 331.811 150.39C332.427 151.46 302.394 164.94 303.137 166.12C303.881 167.3 331.132 149.19 331.917 150.47C332.533 151.47 302.989 167.23 303.743 168.47C304.497 169.71 332.948 150.88 333.733 152.17C334.403 153.26 303.35 168.08 304.136 169.34C304.921 170.6 333.617 151.63 334.392 152.89C335.05 153.96 304.008 169.53 304.762 170.76C305.421 171.83 334.562 152.85 335.348 154.13C335.996 155.19 304.486 170.34 305.187 171.49C305.888 172.64 335.04 153.56 335.826 154.84C336.463 155.9 304.72 170.71 305.346 171.72C306.143 173.03 335.284 153.95 335.974 155.07C336.665 156.19 306.238 172.84 306.875 173.85C307.513 174.86 336.399 156.15 337.153 157.38C337.907 158.61 307.215 173.87 307.874 174.95C308.628 176.18 336.888 157.45 337.684 158.75C338.353 159.84 307.3 173.98 307.948 175.01C308.596 176.04 336.973 157.6 337.684 158.82C338.396 160.04 308.256 174.69 309.042 175.9C309.669 176.9 337.397 158.9 338.13 160.09C338.863 161.28 308.946 175.24 309.679 176.42C310.284 177.42 337.578 159.61 338.353 160.84C338.958 161.84 309.106 175.36 309.828 176.53C310.444 177.53 337.599 159.73 338.385 161.01C339.001 162.01 310.603 176.48 311.208 177.48C311.941 178.68 337.833 161.48 338.523 162.63C339.075 163.52 311.527 177.09 312.122 178.06C312.833 179.23 337.96 162.6 338.608 163.65C339.256 164.7 314.734 178.56 315.244 179.41C315.754 180.26 337.663 165.88 338.279 166.89C338.799 167.74 315.743 178.89 316.242 179.74C316.848 180.74 337.482 166.9 338.066 167.87C338.65 168.84 317.942 179.41 318.441 180.21C318.94 181.01 336.93 169.11 337.408 169.9C337.886 170.69 321.605 179.9 321.977 180.46C322.349 181.02 335.518 172.25 335.9 172.89C336.282 173.53 323.294 179.89 323.591 180.34C323.889 180.79 334.721 173.66 335.008 174.13C335.178 174.4 329.135 178.66 329.273 178.88C329.411 179.1 330.983 177.77 331.068 177.88" stroke="#263238" stroke-width="0.72" stroke-linecap="round" stroke-linejoin="round"/>
<path d="M315.563 159H311.686V170.78H315.563V159Z" fill="white"/>
<path d="M313.609 157.46C314.067 157.464 314.517 157.34 314.901 157.102C315.284 156.865 315.584 156.526 315.763 156.128C315.941 155.73 315.99 155.291 315.903 154.867C315.816 154.443 315.597 154.053 315.274 153.746C314.952 153.439 314.539 153.229 314.089 153.143C313.64 153.058 313.173 153.1 312.749 153.264C312.325 153.429 311.962 153.708 311.706 154.067C311.451 154.426 311.315 154.848 311.315 155.28C311.313 155.565 311.372 155.847 311.486 156.111C311.601 156.375 311.769 156.615 311.982 156.817C312.195 157.02 312.448 157.181 312.728 157.291C313.007 157.401 313.306 157.459 313.609 157.46Z" fill="white"/>
<path d="M321.786 164.6C321.786 162.94 322.593 161.96 324.144 161.96C325.694 161.96 326.268 162.9 326.268 164.6V170.78H330.123V163.32C330.123 160.17 328.222 158.64 325.577 158.64C324.818 158.635 324.071 158.817 323.41 159.168C322.748 159.519 322.196 160.026 321.807 160.64V159H318.09V170.78H321.786V164.6Z" fill="white"/>
<path d="M321.361 224.89C321.446 225.03 323.082 223.79 323.156 223.89C323.23 223.99 318.908 226.66 319.004 226.89C319.099 227.12 326.14 222.55 326.353 222.89C326.565 223.23 316.338 229.4 316.593 229.82C316.848 230.24 329.932 221.72 330.325 222.36C330.717 223 314.649 232.08 315.074 232.77C315.499 233.46 333.341 221.77 333.84 222.57C334.339 223.37 314.469 232.66 314.872 233.31C315.393 234.17 333.988 221.89 334.424 222.68C334.859 223.47 314.108 233.14 314.618 233.98C315.127 234.82 334.615 221.98 335.157 222.82C335.698 223.66 313.407 236.43 313.917 237.31C314.586 238.4 337.982 222.98 338.555 223.92C339.129 224.86 313.301 237.52 313.842 238.39C314.384 239.26 338.895 223.31 339.575 224.39C340.254 225.47 313.364 239.49 313.906 240.39C314.448 241.29 340.753 224.39 341.391 225.45C342.028 226.51 313.587 241.6 314.256 242.7C315.042 243.99 342.601 225.7 343.334 226.9C343.971 227.9 314.065 243.37 314.66 244.41C315.255 245.45 343.939 227.07 344.587 228.13C345.235 229.19 314.49 244.51 315.191 245.66C315.892 246.81 344.778 227.94 345.532 229.17C346.286 230.4 315.202 246.06 315.796 247.08C316.635 248.45 345.745 229.32 346.424 230.43C347.104 231.54 315.701 246.88 316.349 247.93C317.124 249.19 346.297 230.16 346.977 231.28C347.656 232.4 316.954 248.62 317.644 249.76C318.473 251.11 347.327 232.19 347.986 233.27C348.761 234.52 318.25 249.97 318.972 251.21C319.694 252.45 347.858 233.75 348.708 235.06C349.356 236.13 319.789 251.43 320.384 252.4C321.096 253.57 348.442 235.6 349.154 236.76C349.865 237.92 320.044 251.6 320.692 252.67C321.34 253.74 348.527 236 349.239 237.15C349.844 238.15 321.17 252.34 321.871 253.48C322.572 254.62 348.761 237.57 349.356 238.53C349.95 239.49 323.337 253.6 323.995 254.67C324.653 255.74 348.856 239.96 349.409 240.86C349.961 241.76 326.363 254.86 326.926 255.8C327.489 256.74 348.368 242.8 348.973 243.8C349.494 244.64 329.231 255.58 329.73 256.4C330.229 257.22 347.72 245.7 348.134 246.4C348.548 247.1 330.229 255.85 330.611 256.49C330.994 257.13 347.348 246.39 347.805 247.14C348.081 247.59 336.728 255.51 337.036 256.01C337.344 256.51 344.046 251.77 344.247 252.09C344.343 252.24 339.999 254.83 340.148 255C340.297 255.17 341.858 253.88 341.943 254" stroke="#263238" stroke-width="0.72" stroke-linecap="round" stroke-linejoin="round"/>
<path d="M331.684 231.53C334.424 231.53 334.742 231.53 335.826 231.59C336.478 231.597 337.125 231.708 337.737 231.92C338.179 232.084 338.579 232.331 338.914 232.648C339.248 232.965 339.51 233.343 339.681 233.76C339.906 234.333 340.024 234.939 340.031 235.55C340.084 236.55 340.095 236.88 340.095 239.46C340.095 242.04 340.095 242.34 340.031 243.36C340.024 243.971 339.906 244.577 339.681 245.15C339.508 245.57 339.245 245.952 338.906 246.271C338.568 246.589 338.162 246.838 337.716 247C337.103 247.212 336.457 247.323 335.804 247.33C334.742 247.38 334.403 247.39 331.663 247.39C328.923 247.39 328.593 247.39 327.51 247.33C326.861 247.323 326.218 247.212 325.609 247C325.164 246.841 324.762 246.591 324.43 246.27C324.087 245.962 323.825 245.581 323.666 245.16C323.436 244.588 323.314 243.982 323.305 243.37C323.305 242.37 323.252 242.04 323.252 239.47C323.252 236.9 323.252 236.58 323.305 235.56C323.314 234.948 323.436 234.342 323.666 233.77C323.825 233.349 324.087 232.968 324.43 232.66C324.762 232.339 325.164 232.089 325.609 231.93C326.218 231.718 326.861 231.607 327.51 231.6C328.572 231.55 328.923 231.54 331.663 231.54M331.663 229.8C328.87 229.8 328.53 229.8 327.415 229.86C326.565 229.878 325.725 230.03 324.93 230.31C324.245 230.555 323.625 230.937 323.114 231.43C322.587 231.91 322.181 232.494 321.924 233.14C321.63 233.89 321.469 234.681 321.446 235.48C321.446 236.48 321.446 236.84 321.446 239.48C321.446 242.12 321.446 242.43 321.446 243.48C321.469 244.279 321.63 245.07 321.924 245.82C322.181 246.466 322.587 247.05 323.114 247.53C323.625 248.023 324.245 248.406 324.93 248.65C325.725 248.93 326.565 249.083 327.415 249.1C328.477 249.15 328.859 249.16 331.663 249.16C334.466 249.16 334.796 249.16 335.911 249.1C336.763 249.082 337.607 248.93 338.406 248.65C339.09 248.403 339.709 248.021 340.222 247.53C340.746 247.05 341.148 246.466 341.401 245.82C341.7 245.071 341.862 244.28 341.879 243.48C341.932 242.48 341.943 242.12 341.943 239.48C341.943 236.84 341.943 236.48 341.879 235.48C341.862 234.68 341.7 233.889 341.401 233.14C341.148 232.495 340.746 231.91 340.222 231.43C339.709 230.939 339.09 230.557 338.406 230.31C337.607 230.03 336.763 229.878 335.911 229.86C334.849 229.86 334.466 229.8 331.663 229.8Z" fill="white"/>
<path d="M331.684 234.49C330.634 234.49 329.607 234.783 328.734 235.333C327.86 235.882 327.18 236.663 326.778 237.577C326.376 238.49 326.271 239.496 326.476 240.465C326.681 241.435 327.186 242.326 327.929 243.026C328.672 243.725 329.618 244.201 330.648 244.394C331.678 244.587 332.746 244.488 333.716 244.109C334.686 243.731 335.515 243.09 336.099 242.268C336.682 241.446 336.994 240.479 336.994 239.49C336.994 238.164 336.434 236.892 335.439 235.954C334.443 235.017 333.092 234.49 331.684 234.49ZM331.684 242.68C331.004 242.682 330.34 242.494 329.774 242.14C329.208 241.786 328.767 241.281 328.506 240.691C328.245 240.1 328.176 239.45 328.308 238.822C328.44 238.195 328.767 237.618 329.248 237.166C329.728 236.714 330.34 236.406 331.007 236.282C331.673 236.157 332.364 236.222 332.991 236.468C333.618 236.713 334.154 237.129 334.53 237.662C334.906 238.194 335.106 238.82 335.103 239.46C335.103 240.314 334.743 241.133 334.102 241.737C333.461 242.341 332.591 242.68 331.684 242.68Z" fill="white"/>
<path d="M338.385 234.3C338.385 234.53 338.312 234.755 338.177 234.946C338.041 235.137 337.848 235.285 337.622 235.373C337.396 235.46 337.148 235.483 336.909 235.437C336.67 235.391 336.45 235.28 336.278 235.117C336.106 234.953 335.99 234.746 335.944 234.52C335.897 234.294 335.923 234.061 336.018 233.849C336.113 233.637 336.272 233.457 336.476 233.331C336.68 233.204 336.92 233.138 337.164 233.14C337.325 233.14 337.485 233.17 337.634 233.229C337.782 233.287 337.917 233.373 338.031 233.48C338.145 233.588 338.234 233.716 338.295 233.857C338.356 233.998 338.386 234.148 338.385 234.3Z" fill="white"/>
<path d="M394.767 193.45H409.805" stroke="#263238" stroke-linecap="round" stroke-linejoin="round"/>
<path d="M394.767 196.37H409.805" stroke="#263238" stroke-linecap="round" stroke-linejoin="round"/>
<path d="M394.767 199.28H409.805" stroke="#263238" stroke-linecap="round" stroke-linejoin="round"/>
<path d="M394.767 202.19H409.805" stroke="#263238" stroke-linecap="round" stroke-linejoin="round"/>
<path d="M346.584 159.32H392.122" stroke="#263238" stroke-linecap="round" stroke-linejoin="round"/>
<path d="M341.72 220.09L354.761 207.81" stroke="#263238" stroke-linecap="round" stroke-linejoin="round"/>
<path d="M424.386 185.13V216.35" stroke="#263238" stroke-linecap="round" stroke-linejoin="round"/>
<path d="M357.639 235.49H372.666" stroke="#263238" stroke-linecap="round" stroke-linejoin="round"/>
<path d="M357.639 238.41H372.666" stroke="#263238" stroke-linecap="round" stroke-linejoin="round"/>
<path d="M357.639 241.32H372.666" stroke="#263238" stroke-linecap="round" stroke-linejoin="round"/>
<path d="M357.639 244.24H372.666" stroke="#263238" stroke-linecap="round" stroke-linejoin="round"/>
<path d="M313.874 185.96H328.901" stroke="#263238" stroke-linecap="round" stroke-linejoin="round"/>
<path d="M313.874 188.87H328.901" stroke="#263238" stroke-linecap="round" stroke-linejoin="round"/>
<path d="M313.874 191.79H328.901" stroke="#263238" stroke-linecap="round" stroke-linejoin="round"/>
<path d="M313.874 194.7H328.901" stroke="#263238" stroke-linecap="round" stroke-linejoin="round"/>
<path d="M384.603 164.73H399.631" stroke="#263238" stroke-linecap="round" stroke-linejoin="round"/>
<path d="M384.603 167.65H399.631" stroke="#263238" stroke-linecap="round" stroke-linejoin="round"/>
<path d="M384.603 170.56H399.631" stroke="#263238" stroke-linecap="round" stroke-linejoin="round"/>
<path d="M384.603 173.47H399.631" stroke="#263238" stroke-linecap="round" stroke-linejoin="round"/>
<path d="M388.14 240.91H403.167" stroke="#263238" stroke-linecap="round" stroke-linejoin="round"/>
<path d="M388.14 243.82H403.167" stroke="#263238" stroke-linecap="round" stroke-linejoin="round"/>
<path d="M388.14 246.73H403.167" stroke="#263238" stroke-linecap="round" stroke-linejoin="round"/>
<path d="M388.14 249.65H403.167" stroke="#263238" stroke-linecap="round" stroke-linejoin="round"/>
<path d="M393.439 215.51L380.621 216.35V229.25L394.767 228.42L393.439 215.51Z" fill="#1D1C62"/>
<path d="M383.201 220.04L391.453 219.48" stroke="#263238" stroke-linecap="round" stroke-linejoin="round"/>
<path d="M382.904 223.37L391.751 223.09" stroke="#263238" stroke-linecap="round" stroke-linejoin="round"/>
<path d="M343.302 172.47L330.484 173.3V186.2L344.63 185.37L343.302 172.47Z" fill="#1D1C62"/>
<path d="M333.054 176.99L341.316 176.43" stroke="#263238" stroke-linecap="round" stroke-linejoin="round"/>
<path d="M332.756 180.32L341.603 180.04" stroke="#263238" stroke-linecap="round" stroke-linejoin="round"/>
<path d="M321.181 209.68L308.362 210.51V223.42L322.508 222.59L321.181 209.68Z" fill="#1D1C62"/>
<path d="M310.932 214.2L319.195 213.65" stroke="#263238" stroke-linecap="round" stroke-linejoin="round"/>
<path d="M310.635 217.54L319.481 217.26" stroke="#263238" stroke-linecap="round" stroke-linejoin="round"/>
<path d="M303.318 238.24C303.318 238.24 305.729 242.4 305.729 244.24C305.729 246.08 294.493 269 294.291 269.78C294.089 270.56 295.491 274.7 294.694 277.72C293.898 280.74 290.882 284 290.882 284L287.069 268.51C288.298 267.265 289.151 265.733 289.539 264.073C289.928 262.413 289.837 260.686 289.278 259.07C287.271 253.59 287.271 241.88 287.271 241.88L303.318 238.24Z" fill="white" stroke="#263238" stroke-linecap="round" stroke-linejoin="round"/>
<path d="M283.862 410.47C283.862 410.47 282.864 420.06 283.66 420.63C284.457 421.2 288.556 421.11 291.381 420.63C295.236 419.97 297.339 420.79 300.153 420.79C302.967 420.79 308.978 421.51 309.616 420.3C310.847 417.98 303.52 415.76 299.505 413.5C295.491 411.24 291.689 409.34 291.689 409.34L283.862 410.47Z" fill="white" stroke="#263238" stroke-linecap="round" stroke-linejoin="round"/>
<path d="M253.372 266.57C253.372 266.57 249.761 284.71 249.559 288.1C249.358 291.49 239.332 406.51 239.332 406.51L248.561 407.26L271.628 298.26L273.231 297.89L283.851 410.43L292.475 408.92L292.878 284.85L290.266 266.16L253.372 266.57Z" fill="#263238" stroke="#263238" stroke-linecap="round" stroke-linejoin="round"/>
<path d="M262.601 208.78C262.601 208.78 246.554 205.57 242.741 204.63C238.929 203.69 237.888 212.18 236.73 215C235.573 217.82 224.093 237.48 224.889 239C225.686 240.52 228.702 244.48 234.723 240.51C240.745 236.54 244.345 229.93 244.345 229.93C244.345 229.93 252.374 251.28 252.777 253.73C253.181 256.18 251.715 266.39 252.777 268.46C253.839 270.53 263.801 271.86 272.031 271.67C280.262 271.48 289.278 271.3 290.478 268.46C291.678 265.62 290.277 244.67 290.277 244.67C290.277 244.67 302.713 242.59 304.72 239.76C306.727 236.93 302.32 232.96 298.348 225.59C294.376 218.22 293.335 209.35 290.319 207.65C287.303 205.95 267.656 209.16 265.893 209.16C264.783 209.168 263.676 209.04 262.601 208.78Z" fill="#1D1C62" stroke="#263238" stroke-linecap="round" stroke-linejoin="round"/>
<path d="M265.606 213.88L268.42 220.68L264.608 262.04L273.837 276.77L279.253 259.77L271.224 220.11L275.642 211.99L269.621 209.54L265.011 212.94L265.606 213.88Z" fill="#263238" stroke="#263238" stroke-linecap="round" stroke-linejoin="round"/>
<path d="M258.183 207.65L257.588 219.74L271.022 213.5L282.864 220.11L276.439 207.46C273.421 205.909 270.052 205.065 266.615 205C263.56 204.918 260.573 205.857 258.183 207.65Z" fill="#1D1C62" stroke="#263238" stroke-linecap="round" stroke-linejoin="round"/>
<path d="M260.997 194.43C261.512 197.616 261.715 200.839 261.602 204.06C261.401 209.35 262.197 208.22 264.788 212.18C267.38 216.14 269.196 217.66 271.405 215.39C273.614 213.12 273.614 208.39 274.017 207.46C274.421 206.53 274.814 195.56 274.814 195.56C274.814 195.56 272.031 197.45 260.997 194.43Z" fill="white" stroke="#263238" stroke-linecap="round" stroke-linejoin="round"/>
<path d="M275.408 172.15C277.084 177.026 277.954 182.115 277.989 187.24C277.989 195.52 277.989 198.24 275.058 199.74C272.127 201.24 267.624 201.36 264.895 199.74C262.123 198.155 259.575 196.247 257.312 194.06C255.411 192.11 250.239 186.11 249.549 182.06C248.858 178.01 257.142 172.81 264.034 170.21C265.922 169.441 268.009 169.215 270.033 169.56C272.057 169.906 273.927 170.807 275.408 172.15Z" fill="white" stroke="#263238" stroke-linecap="round" stroke-linejoin="round"/>
<path d="M266.562 182.9C266.753 183.84 266.477 184.68 265.946 184.78C265.415 184.88 264.884 184.19 264.64 183.24C264.396 182.29 264.725 181.46 265.256 181.36C265.787 181.26 266.339 182 266.562 182.9Z" fill="#263238"/>
<path d="M272.838 180.52C273.119 180.136 273.525 179.849 273.994 179.701C274.463 179.553 274.971 179.553 275.44 179.7" stroke="#263238" stroke-linecap="round" stroke-linejoin="round"/>
<path d="M272.838 191.76L275.663 189.92" stroke="#263238" stroke-linecap="round" stroke-linejoin="round"/>
<path d="M261.985 180.52C261.985 180.52 262.856 177.66 266.764 178.68" stroke="#263238" stroke-linecap="round" stroke-linejoin="round"/>
<path d="M270.449 178.27C270.449 178.27 270.672 176.22 273.709 176.22" stroke="#263238" stroke-linecap="round" stroke-linejoin="round"/>
<path d="M271.214 180.26C271.214 180.26 274.665 185.46 274.495 186.26C274.325 187.06 270.874 189.34 270.874 189.34" stroke="#263238" stroke-linecap="round" stroke-linejoin="round"/>
<path d="M254.721 189.84C255.22 189.692 255.649 189.384 255.932 188.969C256.215 188.554 256.335 188.059 256.271 187.57C256.271 185.62 255.209 184.49 255.209 181.73C255.209 178.97 264.342 174.58 269.015 175.07C273.688 175.56 277.979 175.56 280.57 173.12C283.161 170.68 283.671 167.93 282.641 168.12C281.398 168.46 280.187 168.895 279.019 169.42C279.428 167.725 279.455 165.968 279.099 164.263C278.742 162.558 278.009 160.942 276.948 159.52C273.327 154.65 272.467 157.9 272.987 158.71C273.508 159.52 275.047 163.25 275.047 163.25C275.047 163.25 269.366 159.2 265.744 159.52C262.123 159.84 250.579 164.71 247.818 168.45C245.057 172.19 244.887 178.02 245.577 181.27C246.267 184.52 248.338 184.84 248.338 184.84L252.99 190.36L254.721 189.84Z" fill="#263238" stroke="#263238" stroke-linecap="round" stroke-linejoin="round"/>
<path d="M248.508 181.18C248.508 181.18 249.156 176.07 254.147 174.43C259.139 172.79 263.705 172.8 269.992 172.8C276.279 172.8 273.03 167.08 270.64 166.67" stroke="#787878" stroke-linecap="round" stroke-linejoin="round"/>
<path d="M248.062 174.23C248.062 174.23 249.124 169.94 258.48 169.53" stroke="#787878" stroke-linecap="round" stroke-linejoin="round"/>
<path d="M257.312 191.46C257.312 191.46 255.071 186.46 251.45 187.89C247.828 189.32 251.79 196.17 255.581 196.01C259.372 195.85 259.893 193.74 259.893 193.74" fill="white"/>
<path d="M257.312 191.46C257.312 191.46 255.071 186.46 251.45 187.89C247.828 189.32 251.79 196.17 255.581 196.01C259.372 195.85 259.893 193.74 259.893 193.74" stroke="#263238" stroke-linecap="round" stroke-linejoin="round"/>
<path d="M257.864 215.46C257.864 215.46 257.864 205.41 258.99 203.46C260.116 201.51 263.673 199.93 265.734 198.87C267.794 197.81 268.729 198.87 267.794 200.46C266.833 201.819 265.699 203.061 264.417 204.16C264.417 204.16 274.346 199.75 275.281 200.99C276.216 202.23 276.407 203.81 275.281 204.69C274.281 205.317 273.343 206.026 272.477 206.81C271.915 207.51 273.04 212.81 271.915 214.57C270.789 216.33 265.734 218.27 263.111 219.86C260.487 221.45 241.754 240.86 236.699 243.14C231.643 245.42 228.638 246.85 226.015 243.67C223.392 240.49 223.955 237.32 227.332 233.44C230.709 229.56 257.864 215.46 257.864 215.46Z" fill="white" stroke="#263238" stroke-linecap="round" stroke-linejoin="round"/>
<path d="M239.332 406.51C239.332 406.51 236.327 411.99 234.32 413.87C232.312 415.75 228.192 419.52 228.595 420.46C228.999 421.4 247.881 420.46 247.881 420.46C247.881 420.46 249.464 421.12 248.943 416.71C248.71 414.64 248.54 407.26 248.54 407.26L239.332 406.51Z" fill="white" stroke="#263238" stroke-linecap="round" stroke-linejoin="round"/>
<path d="M290.276 244.67C290.276 244.67 290.478 223.32 289.278 220.67L290.276 244.67Z" fill="white"/>
<path d="M290.276 244.67C290.276 244.67 290.478 223.32 289.278 220.67" stroke="#263238" stroke-linecap="round" stroke-linejoin="round"/>
<path d="M129.628 415.45C129.628 414.534 129.339 413.639 128.799 412.878C128.259 412.116 127.491 411.523 126.592 411.172C125.694 410.822 124.705 410.73 123.751 410.909C122.798 411.088 121.922 411.529 121.234 412.176C120.546 412.824 120.078 413.649 119.888 414.547C119.698 415.445 119.796 416.376 120.168 417.222C120.54 418.068 121.17 418.791 121.979 419.3C122.788 419.808 123.738 420.08 124.711 420.08C126.015 420.08 127.266 419.592 128.188 418.724C129.11 417.856 129.628 416.678 129.628 415.45Z" fill="#263238" stroke="#263238" stroke-linecap="round" stroke-linejoin="round"/>
<path d="M124.711 417.77C126.071 417.77 127.175 416.731 127.175 415.45C127.175 414.169 126.071 413.13 124.711 413.13C123.35 413.13 122.247 414.169 122.247 415.45C122.247 416.731 123.35 417.77 124.711 417.77Z" fill="white" stroke="#263238" stroke-linecap="round" stroke-linejoin="round"/>
<path d="M182.314 415.45C182.314 414.534 182.025 413.639 181.485 412.878C180.945 412.116 180.177 411.523 179.278 411.172C178.38 410.822 177.391 410.73 176.437 410.909C175.483 411.088 174.607 411.529 173.92 412.176C173.232 412.824 172.764 413.649 172.574 414.547C172.384 415.445 172.482 416.376 172.854 417.222C173.226 418.068 173.856 418.791 174.665 419.3C175.473 419.808 176.424 420.08 177.397 420.08C178.701 420.08 179.951 419.592 180.873 418.724C181.796 417.856 182.314 416.678 182.314 415.45Z" fill="#263238" stroke="#263238" stroke-linecap="round" stroke-linejoin="round"/>
<path d="M179.86 415.45C179.863 414.991 179.72 414.541 179.45 414.158C179.181 413.776 178.797 413.477 178.347 413.299C177.897 413.122 177.401 413.075 176.922 413.163C176.444 413.252 176.004 413.472 175.658 413.796C175.313 414.12 175.077 414.533 174.981 414.984C174.885 415.434 174.933 415.901 175.119 416.326C175.305 416.75 175.621 417.113 176.027 417.368C176.432 417.624 176.909 417.76 177.397 417.76C178.048 417.76 178.673 417.517 179.135 417.084C179.597 416.651 179.858 416.064 179.86 415.45Z" fill="white" stroke="#263238" stroke-linecap="round" stroke-linejoin="round"/>
<path d="M194.612 420.08C197.327 420.08 199.529 418.007 199.529 415.45C199.529 412.893 197.327 410.82 194.612 410.82C191.896 410.82 189.694 412.893 189.694 415.45C189.694 418.007 191.896 420.08 194.612 420.08Z" fill="#263238" stroke="#263238" stroke-linecap="round" stroke-linejoin="round"/>
<path d="M194.612 417.77C195.972 417.77 197.075 416.731 197.075 415.45C197.075 414.169 195.972 413.13 194.612 413.13C193.251 413.13 192.148 414.169 192.148 415.45C192.148 416.731 193.251 417.77 194.612 417.77Z" fill="white" stroke="#263238" stroke-linecap="round" stroke-linejoin="round"/>
<path d="M159.406 342.66H169.729V410.11H159.321V342.7L159.406 342.66Z" fill="#263238" stroke="#263238" stroke-linecap="round" stroke-linejoin="round"/>
<path d="M172.533 374.73H156.592V410.15H172.533V374.73Z" fill="#263238" stroke="#263238" stroke-linecap="round" stroke-linejoin="round"/>
<path d="M140.566 307.28H153.99V334.23H140.609V307.28H140.566Z" fill="#263238" stroke="#263238" stroke-linecap="round" stroke-linejoin="round"/>
<path d="M173.595 307.29H121.557C120.339 307.289 119.133 307.059 118.011 306.613C116.889 306.167 115.872 305.515 115.022 304.694C114.171 303.874 113.503 302.901 113.056 301.834C112.61 300.767 112.395 299.627 112.423 298.48L113.634 250.6C113.69 248.357 114.675 246.223 116.38 244.655C118.085 243.087 120.374 242.209 122.757 242.21H165.768C167.949 242.208 170.06 242.942 171.716 244.28C173.372 245.617 174.464 247.469 174.795 249.5L182.664 297.39C182.865 298.619 182.781 299.874 182.417 301.068C182.053 302.263 181.418 303.37 180.556 304.311C179.694 305.252 178.625 306.006 177.423 306.52C176.221 307.035 174.915 307.297 173.595 307.29Z" fill="#1D1C62" stroke="#263238" stroke-linecap="round" stroke-linejoin="round"/>
<path d="M156.581 344.41L133.727 358.58" stroke="#263238" stroke-linecap="round" stroke-linejoin="round"/>
<path d="M132.867 356.44L128.969 358.91C128.656 359.11 128.394 359.373 128.202 359.68C128.009 359.987 127.892 360.33 127.857 360.685C127.823 361.039 127.872 361.397 128.002 361.732C128.132 362.066 128.339 362.37 128.608 362.62L128.884 362.86C129.332 363.275 129.927 363.519 130.555 363.545C131.183 363.571 131.798 363.377 132.283 363L135.862 360.22C136.13 360.013 136.35 359.756 136.508 359.465C136.666 359.174 136.757 358.855 136.777 358.529C136.797 358.203 136.745 357.876 136.624 357.57C136.503 357.264 136.316 356.984 136.074 356.75C135.663 356.353 135.116 356.105 134.53 356.048C133.944 355.991 133.356 356.13 132.867 356.44Z" fill="#263238" stroke="#263238" stroke-linecap="round" stroke-linejoin="round"/>
<path d="M207.281 331.47H121.865C117.542 331.47 114.038 334.77 114.038 338.84V339.5C114.038 343.57 117.542 346.87 121.865 346.87H207.281C211.604 346.87 215.108 343.57 215.108 339.5V338.84C215.108 334.77 211.604 331.47 207.281 331.47Z" fill="#1D1C62" stroke="#263238" stroke-linecap="round" stroke-linejoin="round"/>
<path d="M215.044 338.23C214.749 336.321 213.722 334.579 212.157 333.334C210.592 332.088 208.597 331.425 206.548 331.47H162.688C160.64 331.428 158.646 332.091 157.081 333.336C155.517 334.581 154.489 336.322 154.192 338.23C154.052 339.311 154.158 340.408 154.501 341.449C154.845 342.489 155.42 343.448 156.187 344.264C156.953 345.08 157.895 345.733 158.95 346.18C160.005 346.628 161.149 346.859 162.306 346.86H206.91C208.068 346.862 209.214 346.633 210.272 346.186C211.329 345.74 212.273 345.087 213.043 344.271C213.812 343.455 214.388 342.495 214.733 341.453C215.078 340.412 215.184 339.313 215.044 338.23Z" fill="#1D1C62" stroke="#263238" stroke-linecap="round" stroke-linejoin="round"/>
<path d="M124.01 408.75H196.874C198 408.75 199.081 409.171 199.877 409.922C200.674 410.672 201.122 411.689 201.122 412.75V412.95H119.772V412.75C119.772 411.691 120.219 410.675 121.013 409.925C121.807 409.175 122.885 408.753 124.01 408.75Z" fill="#263238" stroke="#263238" stroke-linecap="round" stroke-linejoin="round"/>
<path d="M160.15 408.75H182.377C183.504 408.75 184.584 409.171 185.381 409.922C186.178 410.672 186.625 411.689 186.625 412.75V412.95H160.15V408.76V408.75Z" fill="#263238" stroke="#263238" stroke-linecap="round" stroke-linejoin="round"/>
<path d="M225.898 297.86H158.482V300.42H225.898V297.86Z" fill="white" stroke="#263238" stroke-linecap="round" stroke-linejoin="round"/>
<path d="M244.908 297.86H177.492V300.42H244.908V297.86Z" fill="white" stroke="#263238" stroke-linecap="round" stroke-linejoin="round"/>
<path d="M237.399 252.89H181.177V293.3H237.399V252.89Z" fill="white" stroke="#263238" stroke-linecap="round" stroke-linejoin="round"/>
<path d="M239.725 252.89H183.503V293.3H239.725V252.89Z" fill="#263238" stroke="#263238" stroke-linecap="round" stroke-linejoin="round"/>
<path d="M222.5 274.52H207.993V300.42H222.5V274.52Z" fill="white" stroke="#263238" stroke-linecap="round" stroke-linejoin="round"/>
<path d="M132.028 298.34C132.417 298.34 132.79 298.197 133.068 297.941C133.346 297.685 133.506 297.336 133.515 296.97L133.854 282.25L141.288 264.08L159.013 270.58C159.371 270.669 159.751 270.631 160.08 270.472C160.409 270.313 160.664 270.045 160.796 269.72C160.928 269.395 160.927 269.035 160.794 268.71C160.661 268.385 160.405 268.118 160.075 267.96L140.959 260.96C140.591 260.82 140.18 260.82 139.812 260.96C139.632 261.034 139.47 261.141 139.335 261.275C139.2 261.409 139.095 261.567 139.026 261.74L130.998 281.45C130.934 281.6 130.902 281.759 130.902 281.92L130.562 296.92C130.558 297.104 130.592 297.287 130.663 297.458C130.734 297.63 130.84 297.786 130.975 297.919C131.11 298.052 131.272 298.158 131.451 298.232C131.629 298.306 131.822 298.346 132.017 298.35L132.028 298.34Z" fill="#263238"/>
<path d="M122.279 299.6H141.788V294.29H122.279V299.6Z" fill="#263238" stroke="#263238" stroke-linecap="round" stroke-linejoin="round"/>
<path d="M136.924 262.26C136.924 261.613 137.127 260.981 137.509 260.443C137.89 259.906 138.433 259.486 139.067 259.239C139.702 258.991 140.4 258.927 141.074 259.053C141.747 259.179 142.366 259.49 142.852 259.948C143.338 260.405 143.668 260.988 143.802 261.622C143.936 262.256 143.868 262.914 143.605 263.511C143.342 264.109 142.897 264.62 142.326 264.979C141.755 265.338 141.083 265.53 140.396 265.53C139.475 265.53 138.592 265.185 137.941 264.572C137.289 263.959 136.924 263.127 136.924 262.26Z" fill="#263238"/>
<path d="M129.033 282.74C129.033 282.093 129.237 281.461 129.618 280.923C130 280.386 130.542 279.966 131.177 279.719C131.811 279.471 132.51 279.407 133.183 279.533C133.857 279.659 134.476 279.97 134.961 280.428C135.447 280.885 135.778 281.468 135.912 282.102C136.046 282.736 135.977 283.394 135.714 283.991C135.451 284.589 135.006 285.1 134.435 285.459C133.864 285.818 133.193 286.01 132.506 286.01C132.049 286.011 131.597 285.928 131.175 285.764C130.753 285.6 130.37 285.359 130.047 285.055C129.724 284.751 129.468 284.39 129.294 283.993C129.12 283.596 129.032 283.17 129.033 282.74Z" fill="#263238"/>
<path d="M160.649 266.23L173.732 265.46L165.555 282.38L157.569 272.58L160.649 266.23Z" fill="#263238"/>
<path d="M111.956 315.15L114.866 418.79C114.885 419.449 115.177 420.075 115.679 420.534C116.18 420.993 116.853 421.25 117.553 421.25C118.261 421.25 118.941 420.988 119.445 420.52C119.95 420.053 120.239 419.417 120.25 418.75L121.684 315.15H111.956Z" fill="white" stroke="#263238" stroke-linecap="round" stroke-linejoin="round"/>
<path d="M147.512 315.15L150.422 418.79C150.441 419.449 150.733 420.075 151.234 420.534C151.736 420.993 152.409 421.25 153.108 421.25C153.817 421.25 154.496 420.988 155.001 420.52C155.506 420.053 155.795 419.417 155.806 418.75L157.24 315.15H147.512Z" fill="white" stroke="#263238" stroke-linecap="round" stroke-linejoin="round"/>
<path d="M294.174 315.15L297.094 418.79C297.114 419.449 297.405 420.075 297.907 420.534C298.409 420.993 299.081 421.25 299.781 421.25C300.488 421.25 301.167 420.988 301.67 420.52C302.173 420.052 302.46 419.416 302.468 418.75L303.913 315.15H294.174Z" fill="white" stroke="#263238" stroke-linecap="round" stroke-linejoin="round"/>
<path d="M329.74 315.15L332.661 418.79C332.68 419.449 332.972 420.075 333.474 420.534C333.975 420.993 334.648 421.25 335.348 421.25C336.055 421.25 336.733 420.988 337.236 420.52C337.739 420.052 338.026 419.416 338.035 418.75L339.479 315.15H329.74Z" fill="white" stroke="#263238" stroke-linecap="round" stroke-linejoin="round"/>
<path d="M342.729 303.83H108.494V316.23H342.729V303.83Z" fill="white" stroke="#263238" stroke-linecap="round" stroke-linejoin="round"/>
<path d="M157.505 303.83H108.494V316.23H157.505V303.83Z" fill="white" stroke="#263238" stroke-linecap="round" stroke-linejoin="round"/>
<path d="M342.729 303.83H108.494V310.03H342.729V303.83Z" fill="#263238" stroke="#263238" stroke-linecap="round" stroke-linejoin="round"/>
<path d="M345.447 299.56H105.775V306.39H345.447V299.56Z" fill="white" stroke="#263238" stroke-linecap="round" stroke-linejoin="round"/>
<path d="M345.437 299.56H160.755V306.39H345.437V299.56Z" fill="white" stroke="#263238" stroke-linecap="round" stroke-linejoin="round"/>
<path d="M177.321 190.394C183.352 176.534 176.309 160.695 161.59 155.017C146.871 149.338 130.05 155.97 124.019 169.83C117.988 183.69 125.032 199.529 139.751 205.207C154.47 210.886 171.291 204.254 177.321 190.394Z" stroke="#263238" stroke-linecap="round" stroke-linejoin="round"/>
<path d="M154.468 202.31C167.48 200.337 176.329 188.805 174.233 176.553C172.137 164.301 159.891 155.969 146.879 157.942C133.867 159.916 125.018 171.448 127.114 183.7C129.21 195.952 141.457 204.284 154.468 202.31Z" stroke="#263238" stroke-linecap="round" stroke-linejoin="round"/>
<path d="M135.458 180.12H150.677V200.8" stroke="#263238" stroke-linecap="round" stroke-linejoin="round"/>
<path d="M54.9054 421.08H481.829" stroke="#263238" stroke-linecap="round" stroke-linejoin="round"/>
</svg>
